<svg xmlns="http://www.w3.org/2000/svg" xmlns:xlink="http://www.w3.org/1999/xlink" width="870" height="559.33"><rect width="870" height="559.33" rx="5" ry="5" class="a"/><svg y="0%" x="0%"><circle cx="20" cy="20" r="6" fill="#ff5f58"/><circle cx="40" cy="20" r="6" fill="#ffbd2e"/><circle cx="60" cy="20" r="6" fill="#18c132"/></svg><svg height="499.33" viewBox="0 0 83 49.933" width="830" x="15" xmlns="http://www.w3.org/2000/svg" xmlns:xlink="http://www.w3.org/1999/xlink" y="50"><style>@keyframes p{0%{transform:translateX(-83px)}3.6%{transform:translateX(-332px)}13.2%{transform:translateX(-415px)}14.4%{transform:translateX(-498px)}27.9%{transform:translateX(-581px)}28%{transform:translateX(-664px)}33.1%{transform:translateX(-996px)}41.7%{transform:translateX(-1079px)}41.8%{transform:translateX(-1162px)}42%{transform:translateX(-1245px)}42.1%{transform:translateX(-1328px)}42.3%{transform:translateX(-1411px)}42.4%{transform:translateX(-1494px)}42.5%{transform:translateX(-1577px)}42.7%{transform:translateX(-1660px)}42.8%{transform:translateX(-1743px)}43%{transform:translateX(-1826px)}43.1%{transform:translateX(-1909px)}43.2%{transform:translateX(-1992px)}43.4%{transform:translateX(-2324px)}43.5%{transform:translateX(-2490px)}46.8%{transform:translateX(-2739px)}to{transform:translateX(-2822px)}}.a{fill:#282d35}.f{fill:#b9c0cb}.g{fill:#71bef2}.i{fill:#dbab79}.j{fill:#e88388;font-weight:700}.k{fill:#a8cc8c}.l{fill:#b9c0cb;text-decoration:underline}.m{fill:#71bef2;font-weight:700}.r{fill:#6f7783}</style><g font-size="1.67" font-family="Monaco For Powerline,Consolas,Menlo,'Bitstream Vera Sans Mono','Powerline Symbols',monospace"><defs><symbol id="1">0<text y="1.67" class="f">dillion@Dillions-MacBook-Pro</text><path class="g" d="M30.06 0h10v2.171h-10z"/><text x="30.06" y="1.67" class="h"> ~/cs241</text><path class="i" d="M40.08 0h1v2.171h-1z"/><text x="40.08" y="1.67" class="g"></text><path class="i" d="M41.082 0h12v2.171h-12z"/><text x="41.082" y="1.67" class="h"> master ●</text><text x="53.106" y="1.67" class="i"></text></symbol><symbol id="2">0<text y="1.67" class="f">dillion@Dillions-MacBook-Pro</text><path class="g" d="M30.06 0h10v2.171h-10z"/><text x="30.06" y="1.67" class="h"> ~/cs241</text><path class="i" d="M40.08 0h1v2.171h-1z"/><text x="40.08" y="1.67" class="g"></text><path class="i" d="M41.082 0h12v2.171h-12z"/><text x="41.082" y="1.67" class="h"> master ●</text><text x="53.106" y="1.67" class="i"></text><text x="55.11" y="1.67" class="j">cs</text><text x="57.114" y="1.67" class="f">241-test</text><text x="66.132" y="1.67" class="f">./asm</text><text x="72.144" y="1.67" class="f">test.yaml</text></symbol><symbol id="3">0<text y="1.67" class="f">dillion@Dillions-MacBook-Pro</text><path class="g" d="M30.06 0h10v2.171h-10z"/><text x="30.06" y="1.67" class="h"> ~/cs241</text><path class="i" d="M40.08 0h1v2.171h-1z"/><text x="40.08" y="1.67" class="g"></text><path class="i" d="M41.082 0h12v2.171h-12z"/><text x="41.082" y="1.67" class="h"> master ●</text><text x="53.106" y="1.67" class="i"></text><text x="55.11" y="1.67" class="k">cs241-test</text><text x="66.132" y="1.67" class="l">./asm</text><text x="72.144" y="1.67" class="l">test.yaml</text></symbol><symbol id="4"><text y="1.67" class="k">✔</text><text x="3.006" y="1.67" class="k">word-decimal</text></symbol><symbol id="5"><text y="1.67" class="k">✔</text><text x="3.006" y="1.67" class="k">word-hex</text></symbol><symbol id="6"><text y="1.67" class="k">✔</text><text x="3.006" y="1.67" class="k">word-no-arg</text></symbol><symbol id="7"><text y="1.67" class="k">✔</text><text x="3.006" y="1.67" class="k">jr-$0</text></symbol><symbol id="8"><text y="1.67" class="k">✔</text><text x="3.006" y="1.67" class="k">jr-$31</text></symbol><symbol id="9"><text y="1.67" class="k">✔</text><text x="3.006" y="1.67" class="k">jr-$32</text></symbol><symbol id="10"><text y="1.67" class="k">✔</text><text x="3.006" y="1.67" class="k">jalr-$0</text></symbol><symbol id="11"><text y="1.67" class="k">✔</text><text x="3.006" y="1.67" class="k">jalr-$31</text></symbol><symbol id="12"><text y="1.67" class="k">✔</text><text x="3.006" y="1.67" class="k">jalr-$32</text></symbol><symbol id="13"><text y="1.67" class="k">✔</text><text x="3.006" y="1.67" class="k">add-$0-$0-$0</text></symbol><symbol id="14"><text y="1.67" class="k">✔</text><text x="3.006" y="1.67" class="k">beq-$0-$0-0</text></symbol><symbol id="15"><text y="1.67" class="k">✔</text><text x="3.006" y="1.67" class="k">beq-$0-$0-MAXINT</text></symbol><symbol id="16"><text y="1.67" class="k">✔</text><text x="3.006" y="1.67" class="k">bne-$0-$0-MININT</text></symbol><symbol id="17"><text y="1.67" class="g">============================</text></symbol><symbol id="18"><text y="1.67" class="m">TEST</text><text x="5.01" y="1.67" class="m">SUMMARY</text></symbol><symbol id="19"><text y="1.67" class="k">✔</text><text x="3.006" y="1.67" class="k">13/13</text><text x="9.018" y="1.67" class="k">tests</text><text x="15.03" y="1.67" class="k">passed</text></symbol><symbol id="20"><text y="1.67" class="k">Time:</text><text x="6.012" y="1.67" class="k">0.101s</text></symbol><symbol id="a"><path fill="transparent" d="M0 0h83v23H0z"/></symbol><symbol id="b"><path fill="#6f7683" d="M0 0h1.102v2.171H0z"/></symbol></defs><path class="a" d="M0 0h83v49.933H0z"/><g style="animation-duration:4.728665s;animation-iteration-count:infinite;animation-name:p;animation-timing-function:steps(1,end)"><svg width="2905"><svg><use xlink:href="#a"/><use xlink:href="#b" x="-.004"/></svg><svg x="83"><use xlink:href="#a"/><use xlink:href="#b" x="-.004"/></svg><svg x="166"><use xlink:href="#a"/><use xlink:href="#b" x="54.996"/><use xlink:href="#1"/></svg><svg x="249"><use xlink:href="#a"/><use xlink:href="#b" x="54.996"/><use xlink:href="#1"/></svg><svg x="332"><use xlink:href="#a"/><use xlink:href="#b" x="54.996"/><use xlink:href="#1"/></svg><svg x="415"><use xlink:href="#a"/><use xlink:href="#b" x="55.996"/>0<text y="1.67" class="f">dillion@Dillions-MacBook-Pro</text><path class="g" d="M30.06 0h10v2.171h-10z"/><text x="30.06" y="1.67" class="h"> ~/cs241</text><path class="i" d="M40.08 0h1v2.171h-1z"/><text x="40.08" y="1.67" class="g"></text><path class="i" d="M41.082 0h12v2.171h-12z"/><text x="41.082" y="1.67" class="h"> master ●</text><text x="53.106" y="1.67" class="i"></text><text x="55.11" y="1.67" class="l">c</text><text x="56.112" y="1.67" class="r">lear</text></svg><svg x="498"><use xlink:href="#a"/><use xlink:href="#b" x="56.996"/>0<text y="1.67" class="f">dillion@Dillions-MacBook-Pro</text><path class="g" d="M30.06 0h10v2.171h-10z"/><text x="30.06" y="1.67" class="h"> ~/cs241</text><path class="i" d="M40.08 0h1v2.171h-1z"/><text x="40.08" y="1.67" class="g"></text><path class="i" d="M41.082 0h12v2.171h-12z"/><text x="41.082" y="1.67" class="h"> master ●</text><text x="53.106" y="1.67" class="i"></text><text x="55.11" y="1.67" class="j">cs</text><text x="57.114" y="1.67" class="r">241-test</text><text x="66.132" y="1.67" class="r">./asm</text><text x="72.144" y="1.67" class="r">test.yaml</text></svg><svg x="581"><use xlink:href="#a"/><use xlink:href="#b" x="80.996"/><use xlink:href="#2"/></svg><svg x="664"><use xlink:href="#a"/><use xlink:href="#b" x="80.996"/><use xlink:href="#2"/></svg><svg x="747"><use xlink:href="#a"/><use xlink:href="#b" x="80.996"/><use xlink:href="#3"/></svg><svg x="830"><use xlink:href="#a"/><use xlink:href="#b" x="80.996"/><use xlink:href="#3"/></svg><svg x="913"><use xlink:href="#a"/><use xlink:href="#b" x="-.004" y="2.146"/><use xlink:href="#3"/></svg><svg x="996"><use xlink:href="#a"/><use xlink:href="#b" x="-.004" y="2.146"/><use xlink:href="#3"/></svg><svg x="1079"><use xlink:href="#a"/><use xlink:href="#b" x="-.004" y="4.317"/><use xlink:href="#3"/><use xlink:href="#4" y="2.171"/></svg><svg x="1162"><use xlink:href="#a"/><use xlink:href="#b" x="-.004" y="6.488"/><use xlink:href="#3"/><use xlink:href="#4" y="2.171"/><use xlink:href="#5" y="4.342"/></svg><svg x="1245"><use xlink:href="#a"/><use xlink:href="#b" x="-.004" y="8.659"/><use xlink:href="#3"/><use xlink:href="#4" y="2.171"/><use xlink:href="#5" y="4.342"/><use xlink:href="#6" y="6.513"/></svg><svg x="1328"><use xlink:href="#a"/><use xlink:href="#b" x="-.004" y="10.83"/><use xlink:href="#3"/><use xlink:href="#4" y="2.171"/><use xlink:href="#5" y="4.342"/><use xlink:href="#6" y="6.513"/><use xlink:href="#7" y="8.684"/></svg><svg x="1411"><use xlink:href="#a"/><use xlink:href="#b" x="-.004" y="13.001"/><use xlink:href="#3"/><use xlink:href="#4" y="2.171"/><use xlink:href="#5" y="4.342"/><use xlink:href="#6" y="6.513"/><use xlink:href="#7" y="8.684"/><use xlink:href="#8" y="10.855"/></svg><svg x="1494"><use xlink:href="#a"/><use xlink:href="#b" x="-.004" y="15.172"/><use xlink:href="#3"/><use xlink:href="#4" y="2.171"/><use xlink:href="#5" y="4.342"/><use xlink:href="#6" y="6.513"/><use xlink:href="#7" y="8.684"/><use xlink:href="#8" y="10.855"/><use xlink:href="#9" y="13.026"/></svg><svg x="1577"><use xlink:href="#a"/><use xlink:href="#b" x="-.004" y="17.343"/><use xlink:href="#3"/><use xlink:href="#4" y="2.171"/><use xlink:href="#5" y="4.342"/><use xlink:href="#6" y="6.513"/><use xlink:href="#7" y="8.684"/><use xlink:href="#8" y="10.855"/><use xlink:href="#9" y="13.026"/><use xlink:href="#10" y="15.197"/></svg><svg x="1660"><use xlink:href="#a"/><use xlink:href="#b" x="-.004" y="19.514"/><use xlink:href="#3"/><use xlink:href="#4" y="2.171"/><use xlink:href="#5" y="4.342"/><use xlink:href="#6" y="6.513"/><use xlink:href="#7" y="8.684"/><use xlink:href="#8" y="10.855"/><use xlink:href="#9" y="13.026"/><use xlink:href="#10" y="15.197"/><use xlink:href="#11" y="17.368"/></svg><svg x="1743"><use xlink:href="#a"/><use xlink:href="#b" x="-.004" y="21.685"/><use xlink:href="#3"/><use xlink:href="#4" y="2.171"/><use xlink:href="#5" y="4.342"/><use xlink:href="#6" y="6.513"/><use xlink:href="#7" y="8.684"/><use xlink:href="#8" y="10.855"/><use xlink:href="#9" y="13.026"/><use xlink:href="#10" y="15.197"/><use xlink:href="#11" y="17.368"/><use xlink:href="#12" y="19.539"/></svg><svg x="1826"><use xlink:href="#a"/><use xlink:href="#b" x="-.004" y="23.856"/><use xlink:href="#3"/><use xlink:href="#4" y="2.171"/><use xlink:href="#5" y="4.342"/><use xlink:href="#6" y="6.513"/><use xlink:href="#7" y="8.684"/><use xlink:href="#8" y="10.855"/><use xlink:href="#9" y="13.026"/><use xlink:href="#10" y="15.197"/><use xlink:href="#11" y="17.368"/><use xlink:href="#12" y="19.539"/><use xlink:href="#13" y="21.71"/></svg><svg x="1909"><use xlink:href="#a"/><use xlink:href="#b" x="-.004" y="26.027"/><use xlink:href="#3"/><use xlink:href="#4" y="2.171"/><use xlink:href="#5" y="4.342"/><use xlink:href="#6" y="6.513"/><use xlink:href="#7" y="8.684"/><use xlink:href="#8" y="10.855"/><use xlink:href="#9" y="13.026"/><use xlink:href="#10" y="15.197"/><use xlink:href="#11" y="17.368"/><use xlink:href="#12" y="19.539"/><use xlink:href="#13" y="21.71"/><use xlink:href="#14" y="23.881"/></svg><svg x="1992"><use xlink:href="#a"/><use xlink:href="#b" x="-.004" y="28.198"/><use xlink:href="#3"/><use xlink:href="#4" y="2.171"/><use xlink:href="#5" y="4.342"/><use xlink:href="#6" y="6.513"/><use xlink:href="#7" y="8.684"/><use xlink:href="#8" y="10.855"/><use xlink:href="#9" y="13.026"/><use xlink:href="#10" y="15.197"/><use xlink:href="#11" y="17.368"/><use xlink:href="#12" y="19.539"/><use xlink:href="#13" y="21.71"/><use xlink:href="#14" y="23.881"/><use xlink:href="#15" y="26.052"/></svg><svg x="2075"><use xlink:href="#a"/><use xlink:href="#b" x="-.004" y="30.369"/><use xlink:href="#3"/><use xlink:href="#4" y="2.171"/><use xlink:href="#5" y="4.342"/><use xlink:href="#6" y="6.513"/><use xlink:href="#7" y="8.684"/><use xlink:href="#8" y="10.855"/><use xlink:href="#9" y="13.026"/><use xlink:href="#10" y="15.197"/><use xlink:href="#11" y="17.368"/><use xlink:href="#12" y="19.539"/><use xlink:href="#13" y="21.71"/><use xlink:href="#14" y="23.881"/><use xlink:href="#15" y="26.052"/><use xlink:href="#16" y="28.223"/></svg><svg x="2158"><use xlink:href="#a"/><use xlink:href="#b" x="-.004" y="41.224"/><use xlink:href="#3"/><use xlink:href="#4" y="2.171"/><use xlink:href="#5" y="4.342"/><use xlink:href="#6" y="6.513"/><use xlink:href="#7" y="8.684"/><use xlink:href="#8" y="10.855"/><use xlink:href="#9" y="13.026"/><use xlink:href="#10" y="15.197"/><use xlink:href="#11" y="17.368"/><use xlink:href="#12" y="19.539"/><use xlink:href="#13" y="21.71"/><use xlink:href="#14" y="23.881"/><use xlink:href="#15" y="26.052"/><use xlink:href="#16" y="28.223"/><use xlink:href="#17" y="32.565"/><use xlink:href="#18" y="36.907"/></svg><svg x="2241"><use xlink:href="#a"/><use xlink:href="#b" x="-.004" y="43.395"/><use xlink:href="#3"/><use xlink:href="#4" y="2.171"/><use xlink:href="#5" y="4.342"/><use xlink:href="#6" y="6.513"/><use xlink:href="#7" y="8.684"/><use xlink:href="#8" y="10.855"/><use xlink:href="#9" y="13.026"/><use xlink:href="#10" y="15.197"/><use xlink:href="#11" y="17.368"/><use xlink:href="#12" y="19.539"/><use xlink:href="#13" y="21.71"/><use xlink:href="#14" y="23.881"/><use xlink:href="#15" y="26.052"/><use xlink:href="#16" y="28.223"/><use xlink:href="#17" y="32.565"/><use xlink:href="#18" y="36.907"/><use xlink:href="#19" y="41.249"/></svg><svg x="2324"><use xlink:href="#a"/><use xlink:href="#b" x="-.004" y="47.737"/><use xlink:href="#3"/><use xlink:href="#4" y="2.171"/><use xlink:href="#5" y="4.342"/><use xlink:href="#6" y="6.513"/><use xlink:href="#7" y="8.684"/><use xlink:href="#8" y="10.855"/><use xlink:href="#9" y="13.026"/><use xlink:href="#10" y="15.197"/><use xlink:href="#11" y="17.368"/><use xlink:href="#12" y="19.539"/><use xlink:href="#13" y="21.71"/><use xlink:href="#14" y="23.881"/><use xlink:href="#15" y="26.052"/><use xlink:href="#16" y="28.223"/><use xlink:href="#17" y="32.565"/><use xlink:href="#18" y="36.907"/><use xlink:href="#19" y="41.249"/><use xlink:href="#20" y="43.42"/></svg><svg x="2407"><use xlink:href="#a"/><use xlink:href="#b" x="-.004" y="47.737"/><use xlink:href="#3"/><use xlink:href="#4" y="2.171"/><use xlink:href="#5" y="4.342"/><use xlink:href="#6" y="6.513"/><use xlink:href="#7" y="8.684"/><use xlink:href="#8" y="10.855"/><use xlink:href="#9" y="13.026"/><use xlink:href="#10" y="15.197"/><use xlink:href="#11" y="17.368"/><use xlink:href="#12" y="19.539"/><use xlink:href="#13" y="21.71"/><use xlink:href="#14" y="23.881"/><use xlink:href="#15" y="26.052"/><use xlink:href="#16" y="28.223"/><use xlink:href="#17" y="32.565"/><use xlink:href="#18" y="36.907"/><use xlink:href="#19" y="41.249"/><use xlink:href="#20" y="43.42"/></svg><svg x="2490"><use xlink:href="#a"/><use xlink:href="#b" x="-.004" y="47.737"/><use xlink:href="#3"/><use xlink:href="#4" y="2.171"/><use xlink:href="#5" y="4.342"/><use xlink:href="#6" y="6.513"/><use xlink:href="#7" y="8.684"/><use xlink:href="#8" y="10.855"/><use xlink:href="#9" y="13.026"/><use xlink:href="#10" y="15.197"/><use xlink:href="#11" y="17.368"/><use xlink:href="#12" y="19.539"/><use xlink:href="#13" y="21.71"/><use xlink:href="#14" y="23.881"/><use xlink:href="#15" y="26.052"/><use xlink:href="#16" y="28.223"/><use xlink:href="#17" y="32.565"/><use xlink:href="#18" y="36.907"/><use xlink:href="#19" y="41.249"/><use xlink:href="#20" y="43.42"/></svg><svg x="2573"><use xlink:href="#a"/><use xlink:href="#b" x="54.996" y="47.737"/><use xlink:href="#3"/><use xlink:href="#4" y="2.171"/><use xlink:href="#5" y="4.342"/><use xlink:href="#6" y="6.513"/><use xlink:href="#7" y="8.684"/><use xlink:href="#8" y="10.855"/><use xlink:href="#9" y="13.026"/><use xlink:href="#10" y="15.197"/><use xlink:href="#11" y="17.368"/><use xlink:href="#12" y="19.539"/><use xlink:href="#13" y="21.71"/><use xlink:href="#14" y="23.881"/><use xlink:href="#15" y="26.052"/><use xlink:href="#16" y="28.223"/><use xlink:href="#17" y="32.565"/><use xlink:href="#18" y="36.907"/><use xlink:href="#19" y="41.249"/><use xlink:href="#20" y="43.42"/><use xlink:href="#1" y="47.762"/></svg><svg x="2656"><use xlink:href="#a"/><use xlink:href="#b" x="54.996" y="47.737"/><use xlink:href="#3"/><use xlink:href="#4" y="2.171"/><use xlink:href="#5" y="4.342"/><use xlink:href="#6" y="6.513"/><use xlink:href="#7" y="8.684"/><use xlink:href="#8" y="10.855"/><use xlink:href="#9" y="13.026"/><use xlink:href="#10" y="15.197"/><use xlink:href="#11" y="17.368"/><use xlink:href="#12" y="19.539"/><use xlink:href="#13" y="21.71"/><use xlink:href="#14" y="23.881"/><use xlink:href="#15" y="26.052"/><use xlink:href="#16" y="28.223"/><use xlink:href="#17" y="32.565"/><use xlink:href="#18" y="36.907"/><use xlink:href="#19" y="41.249"/><use xlink:href="#20" y="43.42"/><use xlink:href="#1" y="47.762"/></svg><svg x="2739"><use xlink:href="#a"/><use xlink:href="#b" x="54.996" y="47.737"/><use xlink:href="#3"/><use xlink:href="#4" y="2.171"/><use xlink:href="#5" y="4.342"/><use xlink:href="#6" y="6.513"/><use xlink:href="#7" y="8.684"/><use xlink:href="#8" y="10.855"/><use xlink:href="#9" y="13.026"/><use xlink:href="#10" y="15.197"/><use xlink:href="#11" y="17.368"/><use xlink:href="#12" y="19.539"/><use xlink:href="#13" y="21.71"/><use xlink:href="#14" y="23.881"/><use xlink:href="#15" y="26.052"/><use xlink:href="#16" y="28.223"/><use xlink:href="#17" y="32.565"/><use xlink:href="#18" y="36.907"/><use xlink:href="#19" y="41.249"/><use xlink:href="#20" y="43.42"/><use xlink:href="#1" y="47.762"/></svg><svg x="2822"><use xlink:href="#a"/><use xlink:href="#b" x="-.004" y="47.737"/><use xlink:href="#4"/><use xlink:href="#5" y="2.171"/><use xlink:href="#6" y="4.342"/><use xlink:href="#7" y="6.513"/><use xlink:href="#8" y="8.684"/><use xlink:href="#9" y="10.855"/><use xlink:href="#10" y="13.026"/><use xlink:href="#11" y="15.197"/><use xlink:href="#12" y="17.368"/><use xlink:href="#13" y="19.539"/><use xlink:href="#14" y="21.71"/><use xlink:href="#15" y="23.881"/><use xlink:href="#16" y="26.052"/><use xlink:href="#17" y="30.394"/><use xlink:href="#18" y="34.736"/><use xlink:href="#19" y="39.078"/><use xlink:href="#20" y="41.249"/><use xlink:href="#1" y="45.591"/></svg></svg></g></g></svg></svg>
